<svg xmlns="http://www.w3.org/2000/svg" viewBox="0 0 256 256" width="256" height="256"><g fill="none"><rect width="256" height="256" fill="#47848F" rx="60"/><circle cx="128" cy="128" r="30.667" fill="#FFF"/><path fill="#FFF" d="M71.113 110.557c-9.547-16.525-10.66-33.24-2.488-37.333c8.17-4.093 22.576 5.823 32.123 22.349c9.547 16.525 10.66 33.24 2.488 37.333c-8.172 4.093-22.576-5.824-32.123-22.349zm113.774 0c-9.547 16.525-23.95 26.442-32.123 22.349c-8.17-4.093-7.059-20.808 2.488-37.333c9.547-16.526 23.95-26.442 32.123-22.349c8.172 4.093 7.059 20.808-2.488 37.333z"/><path fill="#FFF" d="M71.113 145.443c-9.547 16.526-23.95 26.442-32.123 22.349c-8.17-4.093-7.059-20.808 2.488-37.333c9.547-16.525 23.95-26.442 32.123-22.349c8.172 4.093 7.059 20.808-2.488 37.333zm113.774 0c9.547-16.525 10.66-33.24 2.488-37.333c-8.17-4.093-22.576 5.824-32.123 22.349c-9.547 16.525-10.66 33.24-2.488 37.333c8.172 4.093 22.576-5.824 32.123-22.349z"/><path fill="#FFF" d="M128 98.667c-9.547-16.526-23.95-26.442-32.123-22.349c-8.17 4.093-7.059 20.808 2.488 37.333c9.547 16.525 23.95 26.442 32.123 22.349c8.172-4.093 7.059-20.808-2.488-37.333zm0 58.666c9.547 16.526 23.95 26.442 32.123 22.349c8.17-4.093 7.059-20.808-2.488-37.333c-9.547-16.525-23.95-26.442-32.123-22.349c-8.172 4.093-7.059 20.808 2.488 37.333z"/></g></svg>

